<mxfile host="65bd71144e">
    <diagram id="YZTz6zWRVjWZkGCmxJLc" name="Inception块">
        <mxGraphModel dx="1173" dy="766" grid="1" gridSize="10" guides="1" tooltips="1" connect="1" arrows="1" fold="1" page="1" pageScale="1" pageWidth="850" pageHeight="1100" math="0" shadow="0">
            <root>
                <mxCell id="0"/>
                <mxCell id="1" parent="0"/>
                <mxCell id="2" value="&lt;font style=&quot;font-size: 23px;&quot;&gt;输入&lt;/font&gt;" style="rounded=0;whiteSpace=wrap;html=1;fillColor=#dae8fc;strokeColor=#6c8ebf;" vertex="1" parent="1">
                    <mxGeometry x="365" y="520" width="120" height="40" as="geometry"/>
                </mxCell>
                <mxCell id="4" value="&lt;font style=&quot;font-size: 23px;&quot;&gt;1 x 1 卷积层&lt;/font&gt;" style="rounded=0;whiteSpace=wrap;html=1;fillColor=#1ba1e2;strokeColor=#006EAF;fontColor=#ffffff;" vertex="1" parent="1">
                    <mxGeometry x="30" y="360" width="140" height="40" as="geometry"/>
                </mxCell>
                <mxCell id="5" value="&lt;font style=&quot;font-size: 23px;&quot;&gt;1 x 1 卷积层&lt;/font&gt;" style="rounded=0;whiteSpace=wrap;html=1;" vertex="1" parent="1">
                    <mxGeometry x="240" y="410" width="140" height="40" as="geometry"/>
                </mxCell>
                <mxCell id="6" value="&lt;font style=&quot;font-size: 23px;&quot;&gt;1 x 1 卷积层&lt;/font&gt;" style="rounded=0;whiteSpace=wrap;html=1;" vertex="1" parent="1">
                    <mxGeometry x="470" y="410" width="140" height="40" as="geometry"/>
                </mxCell>
                <mxCell id="7" value="&lt;font style=&quot;font-size: 23px;&quot;&gt;1 x 1 卷积层&lt;/font&gt;" style="rounded=0;whiteSpace=wrap;html=1;" vertex="1" parent="1">
                    <mxGeometry x="680" y="300" width="140" height="40" as="geometry"/>
                </mxCell>
                <mxCell id="8" value="&lt;font style=&quot;font-size: 23px;&quot;&gt;3 x 3 卷积层&lt;/font&gt;" style="rounded=0;whiteSpace=wrap;html=1;fillColor=#1ba1e2;strokeColor=#006EAF;fontColor=#ffffff;" vertex="1" parent="1">
                    <mxGeometry x="680" y="410" width="140" height="40" as="geometry"/>
                </mxCell>
                <mxCell id="10" value="&lt;font style=&quot;font-size: 23px;&quot;&gt;20 x 3 卷积层&lt;/font&gt;" style="rounded=0;whiteSpace=wrap;html=1;fillColor=#1ba1e2;strokeColor=#006EAF;fontColor=#ffffff;" vertex="1" parent="1">
                    <mxGeometry x="230" y="300" width="160" height="40" as="geometry"/>
                </mxCell>
                <mxCell id="11" value="&lt;font style=&quot;font-size: 23px;&quot;&gt;20 x 5 卷积层&lt;/font&gt;" style="rounded=0;whiteSpace=wrap;html=1;fillColor=#1ba1e2;strokeColor=#006EAF;fontColor=#ffffff;" vertex="1" parent="1">
                    <mxGeometry x="460" y="300" width="160" height="40" as="geometry"/>
                </mxCell>
                <mxCell id="12" value="&lt;span style=&quot;font-size: 23px;&quot;&gt;通道合并层&lt;/span&gt;" style="rounded=0;whiteSpace=wrap;html=1;fillColor=#dae8fc;strokeColor=#6c8ebf;" vertex="1" parent="1">
                    <mxGeometry x="345" y="180" width="160" height="40" as="geometry"/>
                </mxCell>
                <mxCell id="13" value="" style="endArrow=classic;html=1;fontSize=23;entryX=0.571;entryY=1;entryDx=0;entryDy=0;entryPerimeter=0;strokeWidth=2;" edge="1" parent="1" target="5">
                    <mxGeometry width="50" height="50" relative="1" as="geometry">
                        <mxPoint x="425" y="520" as="sourcePoint"/>
                        <mxPoint x="475" y="470" as="targetPoint"/>
                    </mxGeometry>
                </mxCell>
                <mxCell id="14" value="" style="endArrow=classic;html=1;fontSize=23;entryX=0.5;entryY=1;entryDx=0;entryDy=0;strokeWidth=2;" edge="1" parent="1" target="6">
                    <mxGeometry width="50" height="50" relative="1" as="geometry">
                        <mxPoint x="424" y="520" as="sourcePoint"/>
                        <mxPoint x="474" y="470" as="targetPoint"/>
                    </mxGeometry>
                </mxCell>
                <mxCell id="15" value="" style="endArrow=classic;html=1;strokeWidth=2;fontSize=23;entryX=0.5;entryY=1;entryDx=0;entryDy=0;" edge="1" parent="1" target="8">
                    <mxGeometry width="50" height="50" relative="1" as="geometry">
                        <mxPoint x="485" y="540" as="sourcePoint"/>
                        <mxPoint x="535" y="490" as="targetPoint"/>
                        <Array as="points">
                            <mxPoint x="750" y="540"/>
                        </Array>
                    </mxGeometry>
                </mxCell>
                <mxCell id="16" value="" style="endArrow=classic;html=1;strokeWidth=2;fontSize=23;entryX=0.5;entryY=1;entryDx=0;entryDy=0;" edge="1" parent="1" target="7">
                    <mxGeometry width="50" height="50" relative="1" as="geometry">
                        <mxPoint x="750" y="410" as="sourcePoint"/>
                        <mxPoint x="800" y="360" as="targetPoint"/>
                    </mxGeometry>
                </mxCell>
                <mxCell id="17" value="" style="endArrow=classic;html=1;strokeWidth=2;fontSize=23;entryX=0.5;entryY=1;entryDx=0;entryDy=0;" edge="1" parent="1">
                    <mxGeometry width="50" height="50" relative="1" as="geometry">
                        <mxPoint x="539.5" y="410" as="sourcePoint"/>
                        <mxPoint x="539.5" y="340" as="targetPoint"/>
                    </mxGeometry>
                </mxCell>
                <mxCell id="18" value="" style="endArrow=classic;html=1;strokeWidth=2;fontSize=23;entryX=0.5;entryY=1;entryDx=0;entryDy=0;" edge="1" parent="1">
                    <mxGeometry width="50" height="50" relative="1" as="geometry">
                        <mxPoint x="309.5" y="410" as="sourcePoint"/>
                        <mxPoint x="309.5" y="340" as="targetPoint"/>
                    </mxGeometry>
                </mxCell>
                <mxCell id="19" value="" style="endArrow=classic;html=1;strokeWidth=2;fontSize=23;exitX=0;exitY=0.5;exitDx=0;exitDy=0;entryX=0.5;entryY=1;entryDx=0;entryDy=0;" edge="1" parent="1" source="2" target="4">
                    <mxGeometry width="50" height="50" relative="1" as="geometry">
                        <mxPoint x="50" y="460" as="sourcePoint"/>
                        <mxPoint x="100" y="410" as="targetPoint"/>
                        <Array as="points">
                            <mxPoint x="100" y="540"/>
                        </Array>
                    </mxGeometry>
                </mxCell>
                <mxCell id="20" value="" style="endArrow=classic;html=1;strokeWidth=2;fontSize=23;entryX=0.5;entryY=1;entryDx=0;entryDy=0;" edge="1" parent="1" target="12">
                    <mxGeometry width="50" height="50" relative="1" as="geometry">
                        <mxPoint x="310" y="300" as="sourcePoint"/>
                        <mxPoint x="360" y="250" as="targetPoint"/>
                    </mxGeometry>
                </mxCell>
                <mxCell id="21" value="" style="endArrow=classic;html=1;strokeWidth=2;fontSize=23;entryX=0.5;entryY=1;entryDx=0;entryDy=0;" edge="1" parent="1" target="12">
                    <mxGeometry width="50" height="50" relative="1" as="geometry">
                        <mxPoint x="540" y="300" as="sourcePoint"/>
                        <mxPoint x="590" y="250" as="targetPoint"/>
                    </mxGeometry>
                </mxCell>
                <mxCell id="22" value="" style="endArrow=classic;html=1;strokeWidth=2;fontSize=23;entryX=0;entryY=0.5;entryDx=0;entryDy=0;" edge="1" parent="1" target="12">
                    <mxGeometry width="50" height="50" relative="1" as="geometry">
                        <mxPoint x="100" y="360" as="sourcePoint"/>
                        <mxPoint x="150" y="310" as="targetPoint"/>
                        <Array as="points">
                            <mxPoint x="100" y="200"/>
                        </Array>
                    </mxGeometry>
                </mxCell>
                <mxCell id="24" value="" style="endArrow=classic;html=1;strokeWidth=2;fontSize=23;entryX=1;entryY=0.5;entryDx=0;entryDy=0;" edge="1" parent="1" target="12">
                    <mxGeometry width="50" height="50" relative="1" as="geometry">
                        <mxPoint x="750" y="300" as="sourcePoint"/>
                        <mxPoint x="800" y="250" as="targetPoint"/>
                        <Array as="points">
                            <mxPoint x="750" y="200"/>
                        </Array>
                    </mxGeometry>
                </mxCell>
            </root>
        </mxGraphModel>
    </diagram>
</mxfile>